<?xml version="1.0" encoding="iso-8859-1"?>
<!-- Uploaded to: SVG Repo, www.svgrepo.com, Generator: SVG Repo Mixer Tools -->
<!DOCTYPE svg PUBLIC "-//W3C//DTD SVG 1.1//EN" "http://www.w3.org/Graphics/SVG/1.1/DTD/svg11.dtd">
<svg fill="#000000" version="1.1" id="Capa_1" xmlns="http://www.w3.org/2000/svg" xmlns:xlink="http://www.w3.org/1999/xlink" 
	 width="800px" height="800px" viewBox="0 0 39.041 39.041"
	 xml:space="preserve">
<g>
	<path d="M8.723,22.688l-4.731,4.951c-0.82,0.857-1.485,2.516-1.485,3.702v3.402c0,2.374,1.925,4.298,4.298,4.298h25.431
		c2.374,0,4.299-1.926,4.299-4.298v-2.507c0-1.188-0.572-2.922-1.279-3.877l-4.069-5.5c-0.706-0.953-1.887-0.98-2.637-0.062
		l-2.833,3.476c-0.75,0.92-2.321,1.666-3.508,1.666h-4.656c-1.187,0-2.732-0.766-3.453-1.709l-2.585-3.388
		C10.791,21.896,9.542,21.828,8.723,22.688z"/>
	<path d="M19.52,20.416c4.451,0,8.06-5.757,8.06-10.208C27.579,5.757,23.971,0,19.52,0c-4.45,0-8.059,5.757-8.059,10.208
		C11.46,14.659,15.07,20.416,19.52,20.416z"/>
</g>
</svg>